<?xml version="1.0" standalone="no"?>
<!DOCTYPE svg PUBLIC "-//W3C//DTD SVG 20010904//EN"
 "http://www.w3.org/TR/2001/REC-SVG-20010904/DTD/svg10.dtd">
<svg version="1.0" xmlns="http://www.w3.org/2000/svg"
 width="376.000000pt" height="376.000000pt" viewBox="0 0 376.000000 376.000000"
 preserveAspectRatio="xMidYMid meet">
<metadata>
Created by potrace 1.11, written by Peter Selinger 2001-2013
</metadata>
<g transform="translate(0.000000,376.000000) scale(0.100000,-0.100000)"
fill="#000000" stroke="none">
<path d="M2438 3726 c-26 -28 -44 -52 -51 -69 -6 -15 -9 -15 -49 3 -86 39
-219 21 -269 -36 -43 -49 -47 -160 -8 -207 17 -22 18 -21 8 22 -17 75 6 148
54 176 44 26 137 25 201 -3 36 -16 47 -26 42 -38 -3 -8 -6 -19 -6 -23 0 -4
-31 -20 -70 -35 -72 -28 -169 -96 -206 -144 -26 -33 -74 -123 -74 -138 0 -6
-18 -18 -39 -26 l-39 -16 -34 35 c-34 36 -143 113 -159 113 -5 0 18 -33 50
-72 37 -45 55 -74 47 -76 -46 -10 -254 107 -349 197 -63 60 -70 64 -82 48 -12
-17 -16 -16 -69 7 -40 18 -56 30 -56 44 0 26 73 92 135 122 67 32 171 34 212
4 45 -33 54 -61 50 -142 -5 -82 8 -84 28 -6 22 88 -8 163 -78 195 -66 30 -158
26 -234 -11 -66 -31 -69 -31 -52 1 9 18 8 19 -8 11 -25 -14 -55 -49 -88 -102
l-28 -44 -29 34 c-16 19 -39 53 -51 75 -20 37 -22 38 -25 16 -6 -36 6 -84 33
-136 27 -51 29 -55 17 -55 -5 0 -18 24 -31 54 -22 54 -84 136 -95 125 -3 -3 3
-29 14 -57 24 -62 27 -127 6 -119 -31 12 -108 19 -141 13 -38 -7 -39 -26 -2
-27 13 0 1 -8 -30 -20 -29 -11 -77 -42 -106 -69 -88 -81 -106 -178 -46 -254
25 -32 89 -66 122 -66 23 0 26 -8 51 -112 14 -62 26 -118 26 -125 0 -33 -29
-67 -83 -99 -59 -35 -60 -35 -106 -20 -119 38 -237 25 -363 -41 -55 -29 -70
-33 -87 -23 -26 13 -21 41 17 114 70 130 179 141 272 28 40 -49 40 -18 0 37
-96 131 -248 102 -326 -64 -13 -27 -24 -55 -24 -62 0 -8 -18 -9 -62 -6 -65 6
-73 -4 -19 -27 25 -10 32 -21 40 -61 11 -48 10 -50 -22 -80 -29 -27 -37 -29
-82 -24 l-50 5 35 -30 c19 -16 41 -30 48 -30 15 0 14 -7 -12 -75 -18 -47 -20
-115 -6 -167 25 -89 104 -131 205 -109 72 16 85 36 18 26 -63 -8 -122 7 -153
40 -41 44 -37 206 6 250 20 19 61 7 68 -21 29 -115 142 -254 250 -309 52 -27
61 -36 78 -80 28 -70 19 -119 -47 -251 -39 -78 -76 -136 -126 -193 -65 -76
-70 -85 -59 -105 10 -20 8 -31 -15 -75 -22 -45 -29 -51 -48 -46 -29 9 -77 62
-107 122 -21 39 -25 63 -25 130 0 72 3 84 24 107 33 36 83 50 148 42 64 -7 63
6 -1 24 -59 16 -128 6 -165 -26 -68 -57 -80 -189 -27 -293 31 -63 31 -65 6
-51 -11 6 -20 7 -20 2 0 -14 73 -78 109 -97 17 -8 31 -20 31 -24 0 -12 -65
-63 -115 -90 l-40 -22 56 5 c33 2 78 15 107 30 60 30 62 31 62 11 0 -8 -7 -15
-15 -15 -40 0 -170 -89 -153 -105 2 -3 30 4 61 15 31 11 68 20 82 20 26 0 26
-1 19 -47 -8 -52 -9 -61 -6 -110 2 -36 22 -46 22 -11 0 30 13 13 34 -45 34
-91 135 -167 223 -167 46 0 110 48 138 104 32 63 21 80 -15 23 -32 -51 -85
-87 -127 -87 -40 0 -112 48 -146 97 -32 46 -55 115 -58 171 -4 65 11 73 95 50
36 -10 45 -16 43 -32 -2 -20 3 -21 105 -22 125 -2 138 -5 138 -38 0 -38 65
-281 100 -376 18 -47 34 -107 36 -135 9 -98 73 -176 174 -212 l48 -17 -6 -58
c-2 -32 -2 -58 1 -58 4 0 16 18 27 40 15 28 27 40 43 40 12 0 31 3 43 6 16 4
29 -4 54 -36 l33 -42 -17 -55 c-10 -30 -15 -57 -12 -61 3 -3 6 1 6 9 0 25 78
177 135 265 29 45 51 84 49 87 -2 2 5 12 16 22 11 10 20 15 20 11 0 -3 12 0
28 8 18 9 44 12 74 9 l47 -6 -19 -37 c-37 -72 -81 -193 -100 -274 -23 -93 -23
-96 -11 -96 4 0 11 21 15 46 13 99 94 308 169 442 l36 62 -44 0 c-38 0 -52 7
-107 52 -35 29 -116 104 -181 168 l-119 115 5 55 c3 30 9 66 13 79 11 36 -16
23 -45 -22 -23 -36 -25 -36 -38 -17 -21 30 -13 50 37 89 l45 34 -43 -6 c-24
-3 -52 -13 -62 -22 -17 -16 -19 -15 -29 4 -6 11 -11 22 -11 24 0 10 56 40 103
57 l50 18 -38 12 c-36 12 -91 10 -126 -5 -14 -5 -18 2 -24 43 -3 27 -2 75 4
108 14 75 60 208 61 174 0 -14 4 -31 9 -39 7 -11 11 -4 16 25 12 66 66 144
100 144 3 0 -6 -20 -21 -45 -29 -49 -49 -185 -25 -171 6 4 11 23 11 42 0 19 4
42 9 52 6 9 13 34 16 54 8 54 30 61 99 36 40 -15 55 -25 52 -35 -3 -8 -2 -11
3 -8 12 7 41 -34 41 -57 0 -10 -6 -18 -12 -18 -9 0 -10 -2 -2 -8 12 -7 11 -36
-1 -112 -11 -67 13 -38 31 37 26 108 12 161 -63 243 -31 35 -41 40 -80 40 -43
0 -99 -22 -155 -62 l-28 -19 0 48 c0 37 12 72 50 152 28 58 60 120 71 138 l20
33 98 -100 c53 -55 103 -100 110 -100 7 0 -9 17 -36 39 -48 37 -122 115 -150
158 -13 19 -11 26 18 75 64 104 259 356 307 396 31 24 190 15 324 -19 164 -42
223 -64 283 -109 116 -86 147 -138 195 -324 32 -126 56 -254 48 -261 -2 -3
-54 -18 -114 -34 -60 -16 -102 -30 -93 -30 9 -1 61 10 115 24 53 14 99 24 100
22 9 -8 24 -219 24 -331 0 -123 -22 -354 -39 -397 -6 -18 -8 -18 -44 1 -57 31
-60 25 -17 -33 43 -55 85 -134 95 -178 9 -37 -28 -47 -44 -13 -33 72 -243 245
-268 220 -2 -2 25 -44 61 -92 89 -121 123 -184 105 -195 -24 -15 -35 -10 -52
27 -21 42 -115 171 -146 198 -27 24 -39 14 -19 -16 20 -30 64 -162 73 -214 l6
-40 -58 -16 c-77 -21 -191 -44 -343 -68 -112 -17 -118 -19 -55 -17 l70 2 33
-67 34 -68 -22 -29 c-11 -17 -27 -28 -34 -25 -30 11 -26 -261 4 -341 19 -49
21 -20 4 51 -12 51 -15 95 -11 166 5 85 9 99 31 121 l24 24 7 -33 c3 -19 3
-39 0 -44 -3 -6 -1 -10 6 -10 24 0 6 122 -28 191 -18 35 -29 67 -25 70 4 3 56
14 115 24 137 21 322 72 454 124 l103 39 -6 -71 c-3 -40 -7 -87 -9 -105 -1
-17 1 -60 5 -95 7 -59 6 -64 -24 -107 -47 -70 -181 -205 -289 -291 -54 -44
-92 -79 -85 -79 22 0 178 132 273 231 98 101 155 178 158 209 1 17 7 15 42
-19 22 -21 54 -46 70 -56 l31 -17 -118 -120 c-65 -66 -115 -124 -112 -130 4
-6 3 -9 -2 -6 -5 3 -34 -16 -64 -43 -30 -27 -49 -49 -42 -49 7 0 33 19 59 42
l46 43 -17 -33 c-10 -18 -15 -39 -13 -45 2 -6 21 22 43 63 42 82 191 243 253
275 44 22 93 10 192 -47 70 -40 242 -198 298 -272 12 -16 24 -26 27 -23 9 9
-64 93 -164 189 -66 62 -111 95 -176 128 l-87 44 45 23 c24 12 48 28 51 33 5
8 13 6 24 -4 16 -15 17 -14 14 12 -2 15 1 34 7 42 10 13 13 13 23 -4 44 -68
104 -127 205 -203 133 -99 223 -181 253 -230 12 -19 29 -33 40 -33 18 0 20 5
14 62 -12 128 -38 275 -61 355 -13 46 -24 87 -24 91 0 4 16 -16 36 -43 53 -72
118 -213 161 -347 36 -112 39 -117 66 -118 l27 0 0 240 0 240 -35 68 c-19 37
-44 83 -57 102 -20 32 -20 34 -3 21 11 -8 37 -31 58 -50 l37 -35 0 100 0 100
-37 35 c-42 40 -197 165 -221 178 -21 12 -8 44 16 37 9 -3 52 -10 94 -16 43
-5 93 -16 113 -24 19 -8 35 -11 35 -6 0 16 -60 78 -97 101 -22 14 -31 24 -23
29 7 5 -2 15 -27 27 -33 18 -39 26 -46 69 -8 47 -7 49 25 77 28 24 39 27 78
23 l45 -6 -33 30 c-18 17 -39 30 -48 30 -12 0 -14 5 -9 18 57 133 42 258 -38
316 -36 27 -137 28 -182 3 l-30 -16 62 6 c50 5 69 2 106 -16 24 -12 49 -33 55
-47 19 -41 14 -153 -8 -202 -17 -38 -23 -43 -42 -36 -13 3 -24 7 -24 8 -1 0
-16 35 -33 76 -53 129 -130 210 -248 262 -33 14 -44 26 -54 56 -41 124 24 302
173 471 60 68 65 77 52 92 -13 15 -12 23 10 73 15 33 31 56 40 56 28 0 85 -61
117 -125 24 -50 31 -76 31 -127 1 -117 -40 -154 -167 -152 l-70 1 40 -19 c51
-24 134 -20 173 8 15 11 37 40 50 65 33 62 28 174 -11 244 -27 47 -29 71 -5
47 7 -7 16 -12 21 -12 19 0 -49 72 -94 100 -28 17 -47 35 -44 40 3 5 36 28 72
52 66 42 66 43 35 46 -26 3 -76 -14 -169 -55 -7 -3 -13 2 -13 10 0 8 13 17 30
21 47 9 153 87 138 101 -2 2 -28 -4 -56 -15 -29 -11 -65 -20 -81 -20 l-28 0 5
89 c3 60 1 90 -7 95 -7 5 -11 -1 -11 -13 0 -12 -4 -21 -10 -21 -5 0 -10 7 -10
15 0 55 -91 167 -164 202 -35 16 -41 24 -53 73 -14 57 -71 181 -98 215 -8 11
2 -16 24 -60 22 -44 49 -114 60 -155 19 -69 63 -370 55 -379 -1 -2 -10 23 -20
55 l-16 57 -16 -26 c-45 -74 -75 17 -91 278 -11 165 -27 285 -41 285 -4 0 -87
-106 -185 -235 -98 -129 -181 -235 -185 -235 -16 0 -29 50 -20 75 41 108 29
238 -35 371 -20 42 -34 82 -31 90 17 45 102 21 174 -51 45 -45 52 -57 52 -92
0 -44 -32 -101 -79 -140 -37 -31 -6 -30 41 2 41 28 78 96 78 144 0 74 -80 166
-171 196 l-47 16 5 55 c7 62 -5 70 -29 20 -14 -29 -22 -34 -65 -40 -46 -6 -49
-5 -75 26 -29 35 -34 61 -18 102 11 29 8 32 -12 12z m-168 -326 c-12 -23 -30
-27 -30 -7 0 17 10 27 27 27 11 0 11 -5 3 -20z m-1216 -13 c17 -13 17 -16 1
-76 -14 -48 -21 -61 -33 -56 -24 9 -31 -14 -25 -84 l6 -65 -64 45 c-89 63 -89
63 -89 40 0 -13 5 -19 14 -15 7 3 42 -15 77 -39 80 -56 234 -142 319 -178 36
-16 56 -29 45 -29 -38 -1 -47 -14 -24 -39 11 -12 18 -28 15 -36 -4 -11 -13
-11 -53 2 -26 8 -59 18 -73 21 -14 3 -63 44 -109 91 l-84 86 77 -90 c42 -49
76 -93 76 -97 0 -15 -32 -8 -72 14 -33 19 -40 20 -48 8 -6 -8 -10 -23 -10 -32
0 -26 -23 -22 -52 10 -23 24 -52 121 -82 272 -2 14 -2 -3 1 -37 3 -35 2 -63
-2 -63 -18 0 -66 33 -94 65 -46 53 -45 109 2 171 40 52 97 89 168 108 69 19
91 19 113 3z m1995 -62 c19 -109 32 -370 20 -405 -17 -47 -37 -36 -70 35 -16
36 -34 63 -39 60 -6 -4 -17 -19 -25 -36 -22 -42 -38 -36 -65 24 -13 28 -25 54
-27 56 -1 2 -21 -12 -45 -31 -57 -46 -73 -55 -62 -36 9 15 298 398 300 398 1
0 7 -29 13 -65z m-889 18 c-1 -13 -49 -68 -54 -62 -7 6 34 69 45 69 5 0 9 -3
9 -7z m267 -30 c4 -12 -35 -63 -48 -63 -10 0 -13 73 -3 83 8 8 47 -7 51 -20z
m150 -19 c3 -8 1 -20 -6 -27 -8 -8 -11 -8 -11 0 0 6 -3 18 -6 27 -3 9 -1 16 5
16 7 0 14 -7 18 -16z m-290 -16 c-3 -8 -6 -5 -6 6 -1 11 2 17 5 13 3 -3 4 -12
1 -19z m-863 -17 c21 -21 24 -31 15 -37 -8 -4 -15 -2 -17 5 -3 8 -13 22 -23
32 -11 11 -19 21 -19 24 0 13 19 3 44 -24z m241 -68 c53 -29 56 -33 31 -33
-16 0 -41 11 -58 25 -19 16 -42 25 -64 25 -36 0 -51 17 -40 46 5 13 10 12 38
-8 18 -12 60 -37 93 -55z m-388 20 c-11 -10 -27 8 -27 30 l0 21 16 -22 c9 -13
14 -26 11 -29z m933 26 c7 -11 9 -23 6 -26 -8 -9 -36 17 -36 33 0 21 18 17 30
-7z m268 -21 c-2 -6 -10 -14 -16 -16 -7 -2 -10 2 -6 12 7 18 28 22 22 4z
m-367 -29 c-17 -17 -39 -29 -48 -27 -14 3 -8 10 22 30 54 36 63 35 26 -3z
m-961 -30 c0 -11 5 -29 10 -39 7 -13 7 -21 -1 -25 -15 -10 -17 -5 -25 43 -4
28 -3 42 5 42 6 0 11 -9 11 -21z m1460 -26 c0 -33 -3 -44 -11 -36 -9 9 -3 83
7 83 2 0 4 -21 4 -47z m-90 -8 c0 -9 -9 -15 -25 -15 -29 0 -34 16 -7 23 30 8
32 7 32 -8z m-1063 -9 c0 0 3 -10 5 -21 2 -17 -2 -19 -27 -17 -37 5 -38 6 -30
32 5 16 12 19 28 14 12 -3 23 -7 24 -8z m887 -2 c3 -9 6 -20 6 -25 0 -15 -37
-10 -51 7 -10 13 -10 17 2 25 21 13 36 11 43 -7z m-1009 -4 c-3 -5 -13 -10
-21 -10 -8 0 -12 5 -9 10 3 6 13 10 21 10 8 0 12 -4 9 -10z m565 -20 c9 -17 6
-25 -19 -50 -16 -17 -33 -39 -36 -50 -7 -23 -16 -25 -32 -9 -8 8 -16 7 -30 -2
-18 -10 -25 -7 -61 28 -56 54 -55 70 6 78 26 4 65 10 87 15 63 13 74 11 85
-10z m659 -66 c13 -36 10 -51 -7 -40 -11 6 -22 76 -12 76 3 0 12 -16 19 -36z
m-1291 17 c10 -6 11 -13 1 -34 -14 -31 -22 -33 -38 -13 -9 11 -10 20 -1 35 12
23 18 25 38 12z m908 -6 c19 -14 19 -14 -2 -15 -12 0 -27 7 -34 15 -17 20 9
21 36 0z m1111 -68 c66 -72 108 -224 70 -255 -15 -13 -84 2 -103 21 -6 7 -17
59 -23 117 -6 58 -14 122 -18 144 -6 36 -5 38 14 28 10 -6 37 -30 60 -55z
m-1338 2 c15 -45 14 -49 -14 -49 -32 0 -42 23 -25 56 18 32 26 30 39 -7z m140
-3 l33 -34 -32 -7 c-17 -4 -33 -5 -34 -3 -8 8 -14 78 -7 78 4 0 22 -15 40 -34z
m-415 -1 c34 -31 33 -51 -3 -63 -26 -9 -32 -8 -45 13 -19 29 -20 47 -4 63 17
17 21 15 52 -13z m-254 -20 c-13 -16 -50 -21 -50 -7 0 15 13 22 38 22 21 0 22
-2 12 -15z m1000 -7 c0 -6 -7 -7 -16 -4 -9 3 -20 6 -25 6 -6 0 -8 4 -5 9 8 12
46 2 46 -11z m-876 -48 c-6 -6 -18 -8 -28 -4 -15 6 -15 7 1 20 21 15 44 1 27
-16z m1506 -35 l35 -36 -1 -207 c-1 -122 -7 -239 -15 -285 l-14 -79 -38 67
c-38 66 -110 255 -101 265 3 2 18 -3 33 -11 l27 -16 -22 56 c-41 104 -41 103
0 96 l35 -7 -6 107 c-6 104 -5 107 13 97 10 -6 35 -27 54 -47z m-1816 -68 c39
-35 92 -79 117 -98 l47 -35 -64 -67 -64 -68 -37 11 c-21 6 -49 17 -62 24 -23
13 -24 14 -5 24 52 30 52 29 -6 81 -51 47 -53 50 -29 51 14 0 28 3 32 6 3 3
-14 30 -39 60 -24 30 -44 59 -44 64 0 6 18 10 41 10 36 0 49 -7 113 -63z
m-250 -113 c11 -30 6 -42 -21 -47 -36 -7 -37 -5 -18 32 17 34 30 39 39 15z
m-304 -55 c0 -11 -16 -11 -59 -3 -17 4 -29 9 -27 13 6 10 86 0 86 -10z m-165
-29 c3 -5 3 -10 -2 -11 -4 0 -18 -2 -30 -5 -22 -4 -30 6 -16 19 10 10 41 8 48
-3z m283 -12 c-4 -11 -88 -31 -88 -21 0 6 63 32 78 33 8 0 12 -6 10 -12z m242
-37 c6 -16 9 -39 5 -51 -7 -21 -9 -20 -51 21 -24 23 -41 46 -38 51 3 4 20 8
38 8 28 0 36 -5 46 -29z m2260 5 c0 -2 -7 -7 -16 -10 -8 -3 -12 -2 -9 4 6 10
25 14 25 6z m-2636 -21 c7 -19 -3 -47 -15 -39 -12 7 -12 54 0 54 5 0 11 -7 15
-15z m-99 -36 c11 -17 -1 -21 -15 -4 -8 9 -8 15 -2 15 6 0 14 -5 17 -11z m435
-100 c0 -15 -7 -19 -34 -19 -31 0 -34 3 -40 38 -3 20 -6 48 -5 62 0 24 2 23
39 -19 22 -24 40 -52 40 -62z m-506 40 c36 -29 33 -39 -14 -39 -41 0 -47 9
-34 44 8 21 16 20 48 -5z m337 -32 c-17 -17 -22 -2 -9 29 11 28 12 29 16 5 2
-13 -1 -28 -7 -34z m2437 -19 c-2 -6 -10 -14 -16 -16 -7 -2 -10 2 -6 12 7 18
28 22 22 4z m-2578 -26 c0 -18 -18 -42 -31 -42 -13 0 -19 33 -8 46 16 20 39
17 39 -4z m643 -236 l47 -39 -20 -31 c-11 -17 -24 -30 -30 -29 -5 2 -7 -4 -4
-11 3 -8 -2 -26 -11 -39 -14 -22 -19 -24 -48 -15 -19 6 -80 55 -147 118 l-114
107 58 72 58 72 81 -83 c45 -46 103 -101 130 -122z m-830 187 c-7 -2 -19 -2
-25 0 -7 3 -2 5 12 5 14 0 19 -2 13 -5z m444 -59 c22 -6 31 -2 53 24 26 31 53
41 64 24 3 -5 -16 -37 -42 -71 l-47 -61 -7 31 c-9 46 -38 60 -79 39 -23 -13
-25 2 -8 47 l11 28 14 -27 c8 -15 26 -31 41 -34z m-558 33 c6 -8 8 -16 5 -20
-10 -9 -34 4 -34 19 0 18 14 18 29 1z m171 -52 c0 -16 -27 -32 -37 -21 -7 7
16 36 28 36 5 0 9 -7 9 -15z m2684 -10 c-4 -8 -8 -15 -10 -15 -2 0 -4 7 -4 15
0 8 4 15 10 15 5 0 7 -7 4 -15z m-2509 -53 c-10 -10 -16 -12 -13 -7 3 6 8 19
13 30 5 14 9 16 12 7 3 -8 -3 -21 -12 -30z m-237 -42 c3 -7 -13 0 -36 16 -22
16 -38 33 -35 37 6 10 65 -34 71 -53z m112 -35 c0 -26 -16 -17 -33 20 -23 49
-21 54 8 23 14 -15 25 -34 25 -43z m271 36 c19 -16 21 -21 11 -34 -13 -15
-108 -34 -118 -24 -6 6 65 77 76 77 4 0 18 -8 31 -19z m2041 -96 c15 -44 27
-83 27 -86 2 -15 -202 -99 -300 -124 -35 -9 -71 -18 -80 -21 -14 -4 -20 10
-34 73 -9 43 -18 85 -21 94 -3 12 12 19 75 33 47 10 118 36 177 66 55 27 106
48 114 47 9 -1 25 -33 42 -82z m-2062 -40 c0 -22 -28 -75 -40 -75 -16 0 -81
70 -75 81 4 5 31 9 61 9 42 0 54 -3 54 -15z m-151 -60 c13 -19 39 -44 58 -56
37 -23 37 -25 -2 -115 -13 -28 -27 -54 -33 -58 -23 -14 -41 7 -47 52 -3 26
-10 68 -15 93 -9 45 -3 119 9 119 3 0 17 -16 30 -35z m-123 -269 c-20 -19 -26
-35 -26 -71 0 -44 -1 -45 -27 -39 -16 4 -29 7 -30 8 -1 1 16 28 37 60 21 32
45 72 52 90 l13 31 3 -26 c2 -18 -5 -35 -22 -53z m2719 -20 c17 -13 27 -27 23
-31 -7 -8 -68 34 -68 47 0 14 14 9 45 -16z m-65 -66 c0 -5 -4 -10 -10 -10 -5
0 -10 5 -10 10 0 6 5 10 10 10 6 0 10 -4 10 -10z m160 -77 c0 -14 -2 -14 -20
2 -11 10 -20 22 -20 27 0 5 9 4 20 -2 11 -6 20 -18 20 -27z m-2716 -40 c-9
-38 -21 -50 -36 -35 -15 15 5 62 27 62 12 0 14 -7 9 -27z m2593 21 c-3 -3 -12
-4 -19 -1 -8 3 -5 6 6 6 11 1 17 -2 13 -5z m-2727 -27 c0 -16 -59 -61 -68 -53
-6 7 47 66 60 66 4 0 8 -6 8 -13z m2765 -79 c-4 -13 -11 -27 -16 -32 -9 -10
-35 8 -50 36 -9 16 -5 18 31 18 38 0 41 -2 35 -22z m-586 -152 c21 -207 13
-308 -28 -357 l-27 -32 -62 62 -62 62 24 37 c35 54 115 261 122 316 10 68 20
40 33 -88z m-2049 110 c0 -3 -4 -8 -10 -11 -5 -3 -10 -1 -10 4 0 6 5 11 10 11
6 0 10 -2 10 -4z m-120 -46 c0 -10 -19 -20 -70 -35 -21 -6 -19 -3 10 18 37 27
60 33 60 17z m176 -38 c-12 -11 -18 7 -10 30 l8 23 4 -23 c2 -13 1 -26 -2 -30z
m-56 -83 c0 -5 -21 -9 -47 -8 -46 1 -46 1 -15 9 18 4 36 10 39 14 7 7 23 -2
23 -15z m460 -20 c7 -12 6 -33 -2 -63 -9 -33 -9 -59 -2 -96 6 -27 10 -50 8
-50 -14 0 -63 36 -87 65 -30 36 -30 37 -17 91 10 41 20 59 39 68 29 16 47 11
61 -15z m2431 -14 c25 -13 28 -20 23 -43 -9 -37 -17 -44 -45 -40 -21 3 -24 9
-26 51 -2 51 3 55 48 32z m-2821 -50 c0 -8 -7 -15 -16 -15 -14 0 -14 3 -4 15
7 8 14 15 16 15 2 0 4 -7 4 -15z m2700 -27 c0 -5 -9 -4 -20 2 -11 6 -20 12
-20 14 0 2 9 2 20 -1 11 -3 20 -9 20 -15z m-2553 -10 c-3 -8 -6 -5 -6 6 -1 11
2 17 5 13 3 -3 4 -12 1 -19z m323 -64 c0 -8 -4 -14 -10 -14 -5 0 -10 9 -10 21
0 11 5 17 10 14 6 -3 10 -13 10 -21z m-284 -103 c13 -51 37 -121 54 -155 l30
-61 -7 55 c-10 71 -10 196 -1 206 12 11 35 -14 68 -71 29 -51 30 -54 15 -94
-40 -114 -25 -246 41 -372 32 -60 35 -71 23 -86 -7 -10 -14 -19 -15 -21 -1 -2
-25 6 -53 17 -168 63 -200 186 -77 293 17 15 25 28 18 28 -18 0 -92 -48 -99
-65 -11 -30 -20 -13 -37 63 -22 101 -30 213 -21 296 10 98 31 87 61 -33z
m2604 81 c15 -12 24 -33 27 -58 2 -21 14 -58 25 -82 32 -63 13 -74 -44 -25
-25 21 -53 43 -62 48 -17 10 -17 14 1 73 10 34 21 62 24 62 4 0 17 -8 29 -18z
m-12 -166 l46 -44 -38 -40 c-21 -22 -51 -59 -66 -83 l-29 -42 -25 58 c-14 31
-26 60 -26 62 0 14 73 133 81 133 6 0 31 -20 57 -44z m-2321 -37 l2 -44 -14
35 c-17 45 -18 63 -2 58 7 -3 13 -24 14 -49z m1503 -4 c0 -8 -4 -15 -9 -15
-13 0 -22 16 -14 24 11 11 23 6 23 -9z m144 -57 c9 -29 36 -87 61 -128 25 -41
45 -77 45 -82 0 -13 -66 -57 -107 -72 -69 -24 -126 -29 -148 -13 -19 14 -19
17 -4 73 13 51 18 59 37 56 20 -3 22 1 22 43 0 35 9 61 38 110 20 36 38 65 39
65 1 0 9 -24 17 -52z m-1700 -57 c-4 -17 -10 -31 -15 -31 -11 0 -11 16 -3 60
5 24 9 29 15 17 5 -8 6 -29 3 -46z m301 39 c0 -23 -49 -20 -53 3 -3 15 2 18
25 15 17 -2 28 -9 28 -18z m1154 -37 c-1 -43 -2 -45 -9 -18 -11 44 -11 65 0
65 6 0 9 -21 9 -47z m796 -8 c19 -45 24 -71 23 -131 -2 -73 -2 -75 -45 -119
-28 -29 -48 -62 -55 -90 -7 -25 -15 -45 -19 -45 -6 0 -104 72 -146 106 -19 16
-18 20 31 82 24 32 53 76 64 100 16 33 107 149 120 151 1 1 13 -24 27 -54z
m-2125 35 c0 -12 -48 -25 -58 -16 -8 9 18 26 41 26 9 0 17 -4 17 -10z m1721
-63 c5 -32 7 -63 2 -70 -8 -13 -21 46 -22 102 -1 48 7 34 20 -32z m-1701 -31
c0 -2 -7 -9 -15 -16 -12 -10 -15 -10 -15 4 0 9 7 16 15 16 8 0 15 -2 15 -4z
m264 -23 c4 -9 4 -18 1 -21 -7 -8 -35 19 -35 34 0 17 27 7 34 -13z m-377 -70
c-4 -17 -4 -17 -12 0 -4 9 -4 25 0 35 8 16 8 16 12 0 3 -10 3 -26 0 -35z m193
7 c0 -41 -9 -47 -44 -34 -22 8 -20 23 6 51 30 32 38 29 38 -17z m90 14 c0 -8
-5 -12 -10 -9 -6 4 -8 11 -5 16 9 14 15 11 15 -7z m163 -25 c-22 -38 -43 -57
-43 -39 0 16 39 70 51 70 6 0 2 -14 -8 -31z"/>
<path d="M920 3116 c0 -2 8 -10 18 -17 15 -13 16 -12 3 4 -13 16 -21 21 -21
13z"/>
<path d="M408 3279 c-11 -6 -18 -21 -17 -37 l1 -27 9 27 c24 65 58 33 66 -64
3 -32 10 -61 14 -64 12 -7 -1 115 -15 146 -13 28 -33 35 -58 19z"/>
<path d="M315 3160 c5 -8 39 -56 76 -107 61 -82 66 -93 51 -102 -15 -9 -14
-10 6 -11 35 0 27 22 -44 117 -69 90 -105 133 -89 103z"/>
<path d="M240 3099 c-30 -29 -56 -47 -57 -42 -2 6 -10 18 -17 28 -10 14 -10 3
3 -46 10 -42 17 -56 19 -41 3 21 9 16 47 -38 24 -34 47 -65 51 -68 16 -15 -28
56 -60 98 l-35 45 57 58 c70 71 64 75 -8 6z"/>
<path d="M291 3044 c-28 -20 -27 -35 6 -65 14 -13 23 -19 20 -13 -3 6 5 17 18
24 31 17 31 30 1 52 -21 15 -25 15 -45 2z m38 -13 c8 -14 6 -22 -9 -36 -17
-16 -19 -16 -30 5 -10 18 -8 24 7 36 23 17 21 17 32 -5z"/>
<path d="M560 3020 c0 -5 5 -10 10 -10 6 0 10 5 10 10 0 6 -4 10 -10 10 -5 0
-10 -4 -10 -10z"/>
<path d="M2263 1663 c9 -2 25 -2 35 0 9 3 1 5 -18 5 -19 0 -27 -2 -17 -5z"/>
<path d="M2188 1653 c12 -2 30 -2 40 0 9 3 -1 5 -23 4 -22 0 -30 -2 -17 -4z"/>
<path d="M1420 1550 c0 -12 -11 -32 -24 -45 l-24 -24 29 -6 c16 -4 33 -14 39
-23 8 -15 9 -14 10 6 0 13 4 20 10 17 13 -8 13 24 -1 64 -12 35 -39 42 -39 11z"/>
<path d="M2173 1540 c-54 -11 -111 -41 -151 -78 -47 -44 -39 -55 19 -26 28 14
52 24 54 22 3 -2 -7 -25 -20 -51 -25 -46 -48 -164 -35 -172 11 -7 34 47 31 72
-1 12 4 25 12 30 8 4 17 25 20 47 8 48 32 76 67 76 31 0 42 -11 58 -58 8 -23
8 -41 1 -59 -8 -21 -7 -29 6 -35 8 -5 15 -18 15 -28 0 -11 8 -24 19 -29 15 -8
20 -6 30 15 14 31 14 81 1 89 -5 3 -10 19 -10 36 0 16 -4 29 -10 29 -5 0 -10
9 -10 20 0 15 7 20 26 20 21 0 24 -3 19 -21 -5 -15 -4 -19 4 -15 16 10 30 -33
37 -112 4 -37 8 -69 10 -71 2 -3 -5 -14 -15 -25 -23 -25 -38 -76 -22 -76 15 0
54 79 47 96 -3 7 -2 15 2 18 5 3 9 24 11 48 3 52 8 59 27 33 30 -41 28 -77
-11 -169 -15 -34 18 -12 62 42 42 51 42 52 29 90 -21 58 -62 136 -90 169 -49
59 -150 90 -233 73z"/>
<path d="M2450 1456 c0 -2 8 -10 18 -17 15 -13 16 -12 3 4 -13 16 -21 21 -21
13z"/>
<path d="M1249 1353 c16 -31 95 -95 134 -110 40 -15 67 -16 67 -3 0 6 -11 10
-24 10 -43 0 -80 20 -135 73 -29 29 -48 42 -42 30z"/>
<path d="M2130 1301 c0 -4 11 -6 25 -3 14 2 25 6 25 8 0 2 -11 4 -25 4 -14 0
-25 -4 -25 -9z"/>
<path d="M2181 1244 c0 -11 3 -14 6 -6 3 7 2 16 -1 19 -3 4 -6 -2 -5 -13z"/>
<path d="M2039 1117 c15 -19 76 -41 94 -34 6 3 3 6 -8 6 -11 1 -38 11 -60 22
-28 15 -36 17 -26 6z"/>
<path d="M1451 1094 c0 -11 3 -14 6 -6 3 7 2 16 -1 19 -3 4 -6 -2 -5 -13z"/>
<path d="M2200 1070 c59 -11 90 -12 90 -2 0 4 -30 8 -68 8 -63 2 -64 1 -22 -6z"/>
<path d="M1838 933 c-21 -24 -38 -59 -37 -75 0 -7 7 3 16 22 8 19 22 43 30 53
9 9 14 17 11 17 -3 0 -12 -8 -20 -17z"/>
<path d="M1668 873 c17 -2 47 -2 65 0 17 2 3 4 -33 4 -36 0 -50 -2 -32 -4z"/>
<path d="M1718 393 c12 -2 32 -2 45 0 12 2 2 4 -23 4 -25 0 -35 -2 -22 -4z"/>
<path d="M1489 373 c-13 -16 -12 -17 4 -4 16 13 21 21 13 21 -2 0 -10 -8 -17
-17z"/>
<path d="M1815 380 c17 -4 39 -8 50 -8 16 0 15 2 -5 8 -14 4 -36 8 -50 8 -22
0 -22 -1 5 -8z"/>
<path d="M1661 282 c-1 -48 37 -230 55 -261 8 -14 13 -18 10 -8 -20 64 -40
153 -51 222 -7 44 -13 65 -14 47z"/>
<path d="M188 274 c-5 -4 -8 -36 -8 -72 0 -55 -2 -63 -15 -52 -8 6 -18 30 -23
53 -8 39 -9 35 -15 -51 -9 -103 -14 -125 -31 -119 -18 6 -19 46 -2 53 9 3 13
10 10 16 -10 16 -34 -13 -34 -42 0 -15 7 -33 16 -40 24 -20 43 7 52 72 6 52 8
56 25 43 12 -9 21 -33 26 -69 12 -89 16 -73 13 52 -3 147 -5 166 -14 156z"/>
<path d="M260 189 c0 -12 7 -48 16 -81 8 -33 13 -67 10 -75 -4 -9 0 -13 12
-11 9 1 23 -1 31 -6 8 -5 16 -4 22 5 6 11 12 10 28 -5 14 -13 21 -15 21 -6 0
10 3 10 14 1 11 -9 25 -10 50 -3 20 6 46 8 58 5 l23 -5 -21 16 c-12 8 -25 32
-29 52 -5 27 -9 34 -17 26 -9 -9 -9 -21 -1 -47 9 -27 9 -35 0 -32 -7 2 -15 29
-19 60 -4 31 -14 69 -22 84 l-15 28 -1 -37 c0 -21 7 -58 15 -83 17 -49 12 -74
-10 -55 -7 6 -16 23 -21 38 l-7 27 -7 -30 -7 -30 -14 35 -14 35 -5 -33 c-6
-37 -27 -40 -22 -3 2 14 -3 38 -12 55 -8 17 -20 46 -26 64 -14 36 -30 43 -30
11z m34 -64 c4 -19 3 -25 -3 -15 -4 8 -11 29 -15 45 -4 19 -3 25 3 15 4 -8 11
-28 15 -45z m23 -57 c-3 -8 -6 -5 -6 6 -1 11 2 17 5 13 3 -3 4 -12 1 -19z"/>
<path d="M693 159 c-15 -23 -29 -36 -31 -30 -2 6 -15 11 -28 11 -30 0 -34 -37
-5 -48 15 -6 17 -12 9 -32 -9 -25 -10 -25 -23 -5 -32 46 -37 49 -51 31 -13
-18 -8 -52 9 -74 9 -11 13 -11 24 4 11 16 13 16 19 1 10 -28 42 -19 86 21 44
41 47 72 8 72 -25 0 -25 1 0 50 26 52 18 51 -17 -1z m-105 -109 c0 -17 -4 -28
-9 -25 -5 4 -9 20 -9 36 0 39 17 29 18 -11z m132 32 c0 -5 -11 -19 -25 -32
l-25 -23 0 31 c0 27 4 32 25 32 14 0 25 -4 25 -8z"/>
<path d="M221 79 c-1 -14 6 -34 14 -45 14 -18 14 -17 6 11 -17 57 -19 60 -20
34z"/>
</g>
</svg>
